<svg width="512" height="512" viewBox="0 0 512 512" fill="currentColor" xmlns="http://www.w3.org/2000/svg">
<path fill-rule="evenodd" clip-rule="evenodd" d="M118.985 0.571132C97.1552 4.22213 79.0402 21.8141 74.3902 43.8811C71.4822 57.6771 74.4582 66.5111 83.4852 70.8811C94.8952 76.4041 107.332 69.4641 109.467 56.3811C110.881 47.7131 111.28 46.6141 114.229 43.2561C120.291 36.3521 105.491 36.8811 292.549 36.8811H462.213L466.197 39.1201C468.423 40.3711 471.241 43.1681 472.583 45.4581L474.985 49.5571V219.269C474.985 365.508 474.785 389.368 473.536 391.782C471.286 396.134 465.436 400.716 461.256 401.399C452.776 402.786 451.336 403.181 447.968 405.043C439.912 409.497 436.83 419.798 440.985 428.381C445.355 437.408 454.189 440.384 467.985 437.476C477.936 435.379 486.208 431.18 493.643 424.452C500.74 418.03 505.244 411.413 508.885 402.06L511.485 395.381L511.773 223.381C511.976 101.634 511.739 49.4821 510.96 44.8811C507.405 23.8791 488.507 4.75613 467.551 0.957132C463.449 0.213131 409.131 -0.0768684 291.551 0.0171316C198.015 0.0921316 120.36 0.341132 118.985 0.571132ZM47.9852 91.9041C30.2682 94.0551 13.8232 105.611 6.07122 121.357C-0.315781 134.331 0.0162191 124.522 0.000219096 300.947C-0.0097809 411.243 0.322219 463.371 1.06122 467.447C4.81022 488.13 23.7362 507.056 44.4192 510.805C48.4952 511.544 100.623 511.876 210.919 511.866C351.034 511.853 372.306 511.658 377.932 510.332C397.468 505.727 412.54 491.308 418.646 471.381C420.399 465.66 420.485 457.743 420.485 301.381V137.381L418.16 130.381C415.087 121.129 411.778 115.592 405.169 108.648C398.417 101.553 392.164 97.4781 382.751 94.0371L375.485 91.3811L214.985 91.2481C126.71 91.1751 51.5602 91.4701 47.9852 91.9041ZM373.735 130.002C376.375 131.28 379.184 133.736 380.801 136.179L383.485 140.235L383.78 299.308C383.985 410.275 383.75 459.501 383.003 462.086C381.62 466.867 377.448 471.789 373.314 473.517C370.603 474.65 342.89 474.881 209.855 474.881H49.6612L45.5622 472.479C43.2722 471.137 40.4752 468.319 39.2242 466.093L36.9852 462.109V302.06C36.9852 191.123 37.3122 141.147 38.0522 139.196C39.5682 135.193 42.8572 131.907 47.4852 129.771C51.3202 128.001 58.0382 127.924 210.419 127.903L369.354 127.881L373.735 130.002Z" fill="currentColor"/>
</svg>
